<?xml version="1.0" standalone="no"?>
<!DOCTYPE svg PUBLIC "-//W3C//DTD SVG 20010904//EN"
 "http://www.w3.org/TR/2001/REC-SVG-20010904/DTD/svg10.dtd">
<svg version="1.0" xmlns="http://www.w3.org/2000/svg"
 width="512.000000pt" height="512.000000pt" viewBox="0 0 512.000000 512.000000"
 preserveAspectRatio="xMidYMid meet">
<metadata>
Created by potrace 1.14, written by Peter Selinger 2001-2017
</metadata>
<g transform="translate(0.000000,512.000000) scale(0.100000,-0.100000)"
fill="#000000" stroke="none">
<path d="M4752 4703 c30 -35 67 -88 82 -119 51 -104 56 -153 54 -579 l-2 -390
-7 340 c-3 187 -7 344 -8 348 -1 8 -7 4 -55 -38 -16 -14 -35 -25 -42 -25 -8 0
-14 -4 -14 -10 0 -5 -11 -12 -25 -16 -21 -5 -25 -12 -25 -44 0 -22 -4 -42 -10
-45 -5 -3 -10 -39 -10 -80 0 -41 -4 -77 -10 -80 -6 -4 -10 -53 -10 -114 0 -84
-3 -111 -15 -121 -11 -9 -15 -35 -15 -106 0 -51 -4 -96 -10 -99 -5 -3 -10 -45
-10 -93 -1 -61 -5 -93 -15 -106 -10 -13 -15 -44 -15 -89 l0 -69 -195 -204
-195 -205 0 -632 c0 -686 -1 -701 -56 -810 -60 -119 -152 -207 -269 -257 l-60
-25 -627 -3 -627 -3 -184 -192 c-101 -106 -203 -213 -227 -239 l-43 -48 -73 0
c-40 0 -76 -4 -79 -10 -3 -5 -43 -10 -88 -10 -56 -1 -88 -5 -101 -15 -14 -10
-45 -15 -102 -15 -46 0 -86 -5 -89 -10 -3 -6 -40 -10 -81 -10 -43 0 -74 -4
-74 -10 0 -5 -15 -10 -32 -10 -18 0 -42 -7 -52 -15 -11 -8 -39 -15 -63 -15
-24 0 -43 -4 -43 -10 0 -5 -13 -10 -29 -10 -16 0 -34 -7 -41 -15 -9 -11 -34
-15 -101 -15 -48 0 -91 -4 -94 -10 -3 -5 -46 -10 -95 -10 -53 0 -92 -4 -96
-11 -3 -6 -17 -8 -30 -5 -14 4 -24 2 -24 -4 0 -5 -6 -10 -14 -10 -7 0 -19 -6
-25 -14 -25 -30 68 -40 474 -46 l390 -7 -405 2 c-361 1 -411 3 -460 19 -161
53 -294 162 -367 303 -15 28 -29 50 -31 48 -3 -2 13 -35 33 -72 75 -135 223
-251 380 -300 57 -17 141 -18 1880 -18 l1820 0 62 21 c166 57 302 173 372 316
77 156 71 -4 71 2018 0 1984 3 1863 -57 1987 -15 30 -54 82 -86 116 l-59 62
54 -62z"/>
<path d="M1707 3874 c-4 -4 -7 -490 -7 -1081 l0 -1073 458 0 c487 1 793 11
882 30 248 54 427 255 460 519 35 272 -98 482 -369 588 -24 9 -23 10 28 41 68
42 143 122 180 192 111 208 68 460 -106 621 -113 104 -229 145 -445 158 -170
10 -1072 14 -1081 5z m878 -363 c251 -7 266 -11 332 -74 95 -90 77 -286 -34
-359 -76 -50 -89 -51 -425 -56 l-318 -4 0 251 0 251 108 -1 c59 0 211 -4 337
-8z m179 -861 c140 -16 220 -62 269 -155 33 -62 31 -193 -4 -260 -28 -55 -89
-107 -147 -126 -25 -9 -147 -14 -389 -16 l-353 -4 0 285 0 286 268 0 c147 0
307 -5 356 -10z"/>
<path d="M234 1075 c0 -143 2 -200 3 -127 2 73 2 190 0 260 -1 70 -3 10 -3
-133z"/>
<path d="M242 770 c0 -14 2 -19 5 -12 2 6 2 18 0 25 -3 6 -5 1 -5 -13z"/>
<path d="M261 690 c0 -8 4 -22 9 -30 12 -18 12 -2 0 25 -6 13 -9 15 -9 5z"/>
</g>
</svg>
